<svg width="4905" height="1446" viewBox="0 0 4905 1446" fill="none" xmlns="http://www.w3.org/2000/svg">
<path fill-rule="evenodd" clip-rule="evenodd" d="M842.237 1258.11C665.629 1297.2 473.424 1248.05 336.041 1110.67C198.929 973.557 149.703 781.839 188.365 605.519C273.217 639.105 370.047 633.294 450.753 588.085C394.433 702.463 413.857 844.691 509.024 939.859C602.852 1033.69 742.425 1053.89 855.95 1000.46C813.519 1080.34 808.947 1175.04 842.237 1258.11ZM1252.57 864.956C1301.27 682.282 1253.97 479.339 1110.67 336.041C966.977 192.349 763.311 145.182 580.246 194.54C617.822 277.61 616.406 374.013 575.997 456.079C692.603 390.761 842.867 407.685 942.033 506.85C1039.52 604.34 1057.53 751.215 996.046 866.946C1076.99 828.855 1171.17 828.192 1252.57 864.956Z" fill="white"/>
<ellipse cx="1124.94" cy="1146.47" rx="118.473" ry="118.473" fill="white"/>
<path d="M1698.59 396.719H1606.7V637H1541.31V396.719H1449.41V341.047H1698.59V396.719ZM1945.46 341.047V396.719H1806.39V462.843H1933.46V515.618H1806.39V581.328H1949.19V637H1740.99V341.047H1945.46ZM2052.87 489.024C2052.87 504.822 2054.6 518.826 2058.05 531.036C2061.56 543.247 2066.63 553.526 2073.26 561.873C2079.88 570.152 2088.02 576.43 2097.68 580.707C2107.41 584.984 2118.48 587.123 2130.9 587.123C2150.83 587.123 2166.8 581.362 2178.81 569.841C2190.81 558.321 2198.78 541.04 2202.71 517.998H2267.7C2265.83 530.967 2262.87 543.075 2258.8 554.319C2254.8 565.564 2249.76 575.843 2243.69 585.157C2237.69 594.401 2230.75 602.645 2222.89 609.888C2215.02 617.063 2206.33 623.134 2196.81 628.101C2187.29 632.999 2176.98 636.724 2165.87 639.277C2154.83 641.898 2143.14 643.209 2130.79 643.209C2116.72 643.209 2103.4 641.553 2090.85 638.242C2078.29 634.93 2066.67 630.17 2055.98 623.962C2045.35 617.684 2035.76 610.026 2027.21 600.989C2018.72 591.952 2011.51 581.742 2005.58 570.359C1999.65 558.907 1995.06 546.351 1991.82 532.692C1988.64 519.033 1987.06 504.477 1987.06 489.024C1987.06 473.502 1988.64 458.945 1991.82 445.355C1995.06 431.696 1999.65 419.175 2005.58 407.792C2011.51 396.34 2018.72 386.095 2027.21 377.058C2035.76 368.021 2045.35 360.398 2055.98 354.189C2066.67 347.911 2078.29 343.117 2090.85 339.805C2103.4 336.494 2116.72 334.838 2130.79 334.838C2143.14 334.838 2154.83 336.149 2165.87 338.771C2176.98 341.323 2187.29 345.083 2196.81 350.05C2206.33 354.948 2215.02 361.019 2222.89 368.262C2230.75 375.437 2237.69 383.681 2243.69 392.994C2249.76 402.238 2254.8 412.483 2258.8 423.728C2262.87 434.972 2265.83 447.08 2267.7 460.049H2202.71C2198.78 437.077 2190.78 419.83 2178.7 408.309C2166.63 396.719 2150.69 390.924 2130.9 390.924C2118.48 390.924 2107.41 393.063 2097.68 397.34C2088.02 401.617 2079.88 407.93 2073.26 416.277C2066.63 424.556 2061.56 434.8 2058.05 447.011C2054.6 459.221 2052.87 473.226 2052.87 489.024ZM2573.94 637H2508.54V517.377H2384.77V637H2319.37V341.047H2384.77V461.291H2508.54V341.047H2573.94V637ZM2624.06 489.024C2624.06 473.502 2625.65 458.945 2628.82 445.355C2632.06 431.696 2636.65 419.175 2642.58 407.792C2648.51 396.34 2655.76 386.095 2664.31 377.058C2672.87 368.021 2682.46 360.398 2693.08 354.189C2703.7 347.911 2715.29 343.117 2727.85 339.805C2740.47 336.494 2753.82 334.838 2767.9 334.838C2781.97 334.838 2795.28 336.494 2807.84 339.805C2820.46 343.117 2832.09 347.911 2842.71 354.189C2853.34 360.398 2862.93 368.021 2871.48 377.058C2880.03 386.095 2887.28 396.34 2893.21 407.792C2899.14 419.175 2903.7 431.696 2906.87 445.355C2910.11 459.014 2911.73 473.571 2911.73 489.024C2911.73 503.718 2910.28 517.584 2907.39 530.623C2904.49 543.661 2900.35 555.734 2894.97 566.841C2889.59 577.878 2883.03 587.847 2875.31 596.746C2867.58 605.646 2858.85 613.338 2849.13 619.822L2904.59 680.876H2837.33L2803.49 639.277C2792.04 641.898 2780.18 643.209 2767.9 643.209C2753.82 643.209 2740.47 641.553 2727.85 638.242C2715.29 634.93 2703.7 630.17 2693.08 623.962C2682.46 617.684 2672.87 610.026 2664.31 600.989C2655.76 591.952 2648.51 581.742 2642.58 570.359C2636.65 558.907 2632.06 546.351 2628.82 532.692C2625.65 519.033 2624.06 504.477 2624.06 489.024ZM2688.63 489.024C2688.63 504.822 2690.42 518.826 2694.01 531.036C2697.6 543.247 2702.81 553.526 2709.64 561.873C2716.47 570.152 2724.78 576.43 2734.58 580.707C2744.37 584.984 2755.48 587.123 2767.9 587.123C2780.31 587.123 2791.42 584.984 2801.22 580.707C2811.01 576.43 2819.33 570.152 2826.16 561.873C2832.98 553.526 2838.19 543.247 2841.78 531.036C2845.37 518.826 2847.16 504.822 2847.16 489.024C2847.16 473.226 2845.37 459.221 2841.78 447.011C2838.19 434.8 2832.98 424.556 2826.16 416.277C2819.33 407.93 2811.01 401.617 2801.22 397.34C2791.42 393.063 2780.31 390.924 2767.9 390.924C2755.48 390.924 2744.37 393.063 2734.58 397.34C2724.78 401.617 2716.47 407.93 2709.64 416.277C2702.81 424.556 2697.6 434.8 2694.01 447.011C2690.42 459.221 2688.63 473.226 2688.63 489.024ZM2958.8 341.047H3024.2V512.41C3024.2 537.59 3029.68 556.355 3040.65 568.703C3051.62 580.983 3067.39 587.123 3087.94 587.123C3098.22 587.123 3107.29 585.605 3115.16 582.57C3123.09 579.465 3129.75 574.843 3135.13 568.703C3140.58 562.494 3144.69 554.733 3147.44 545.42C3150.27 536.038 3151.69 525.035 3151.69 512.41V341.047H3217.09V516.963C3217.09 530.209 3215.67 542.557 3212.84 554.009C3210.02 565.392 3205.95 575.774 3200.63 585.157C3195.32 594.47 3188.84 602.748 3181.18 609.992C3173.59 617.166 3165 623.237 3155.41 628.204C3145.89 633.102 3135.44 636.828 3124.06 639.38C3112.74 641.933 3100.71 643.209 3087.94 643.209C3075.18 643.209 3063.11 641.933 3051.73 639.38C3040.41 636.828 3029.96 633.102 3020.37 628.204C3010.78 623.237 3002.19 617.166 2994.6 609.992C2987.02 602.748 2980.57 594.47 2975.25 585.157C2969.94 575.774 2965.87 565.392 2963.04 554.009C2960.21 542.557 2958.8 530.209 2958.8 516.963V341.047ZM3334.01 637H3268.61V341.047H3334.01V637ZM3510.25 334.838C3529.29 334.838 3546.4 337.115 3561.58 341.668C3576.82 346.221 3589.76 352.809 3600.38 361.433C3611.08 369.987 3619.29 380.439 3625.01 392.787C3630.74 405.067 3633.6 418.933 3633.6 434.386H3570.89C3570.89 427.211 3569.41 420.796 3566.44 415.139C3563.54 409.413 3559.4 404.549 3554.02 400.548C3548.64 396.478 3542.19 393.374 3534.67 391.235C3527.15 389.096 3518.77 388.027 3509.53 388.027C3501.87 388.027 3494.42 388.82 3487.18 390.407C3480 391.925 3473.62 394.236 3468.03 397.34C3462.51 400.445 3458.06 404.342 3454.68 409.033C3451.37 413.725 3449.72 419.175 3449.72 425.383C3449.72 431.247 3451.13 436.042 3453.96 439.767C3456.86 443.423 3461.1 446.424 3466.69 448.77C3472.34 451.115 3479.31 453.047 3487.59 454.565C3495.94 456.082 3505.53 457.635 3516.36 459.221L3528.46 460.98C3534.67 461.877 3541.05 462.878 3547.61 463.981C3554.16 465.016 3560.72 466.327 3567.27 467.914C3573.82 469.431 3580.24 471.259 3586.52 473.398C3592.86 475.468 3598.87 478.02 3604.52 481.056C3610.18 484.091 3615.39 487.678 3620.15 491.818C3624.91 495.888 3629.01 500.648 3632.46 506.098C3635.98 511.548 3638.71 517.757 3640.64 524.724C3642.57 531.692 3643.53 539.556 3643.53 548.318C3643.53 563.84 3640.43 577.533 3634.22 589.399C3628.08 601.196 3619.32 611.095 3607.94 619.098C3596.62 627.031 3582.93 633.033 3566.86 637.103C3550.78 641.174 3532.85 643.209 3513.05 643.209C3491.73 643.209 3472.83 640.898 3456.34 636.276C3439.85 631.654 3425.95 624.962 3414.64 616.201C3403.39 607.439 3394.84 596.746 3388.97 584.122C3383.11 571.428 3380.18 557.044 3380.18 540.971H3442.89C3442.89 548.628 3444.47 555.492 3447.65 561.563C3450.89 567.634 3455.51 572.773 3461.51 576.982C3467.58 581.19 3474.93 584.432 3483.55 586.709C3492.18 588.916 3501.87 590.02 3512.63 590.02C3521.81 590.02 3530.4 589.192 3538.4 587.537C3546.47 585.881 3553.47 583.363 3559.4 579.983C3565.41 576.602 3570.13 572.394 3573.58 567.358C3577.03 562.322 3578.76 556.424 3578.76 549.663C3578.76 543.247 3577.31 538.073 3574.41 534.141C3571.51 530.14 3567.27 526.932 3561.68 524.517C3556.16 522.103 3549.4 520.206 3541.4 518.826C3533.47 517.377 3524.43 515.928 3514.29 514.48L3498.66 512.203C3490.52 511.03 3482.07 509.754 3473.31 508.374C3464.55 506.926 3455.96 504.994 3447.54 502.579C3439.13 500.165 3431.12 497.095 3423.54 493.37C3415.95 489.644 3409.29 484.884 3403.56 479.089C3397.84 473.295 3393.29 466.327 3389.9 458.187C3386.59 450.046 3384.94 440.353 3384.94 429.109C3384.94 418.83 3386.39 409.378 3389.28 400.755C3392.18 392.132 3396.29 384.336 3401.6 377.369C3406.98 370.332 3413.43 364.192 3420.95 358.949C3428.54 353.637 3436.95 349.188 3446.2 345.6C3455.51 342.013 3465.55 339.322 3476.31 337.529C3487.14 335.735 3498.46 334.838 3510.25 334.838ZM3754.75 637H3689.35V341.047H3754.75V637ZM4046.69 396.719H3954.8V637H3889.4V396.719H3797.51V341.047H4046.69V396.719ZM4154.48 637H4089.08V341.047H4154.48V637ZM4478.49 341.047L4381.42 637H4289.74L4194.13 341.047H4263.87L4336.41 589.399L4410.19 341.047H4478.49ZM4722.38 341.047V396.719H4583.3V462.843H4710.38V515.618H4583.3V581.328H4726.11V637H4517.9V341.047H4722.38Z" fill="white"/>
<path d="M4284.27 1069.5C4284.27 1080.33 4282.89 1090.54 4280.13 1100.13C4277.37 1109.72 4273.4 1118.51 4268.23 1126.52C4263.05 1134.52 4256.71 1141.69 4249.19 1148.04C4241.74 1154.32 4233.25 1159.67 4223.73 1164.08C4214.21 1168.43 4203.79 1171.74 4192.48 1174.01C4181.16 1176.36 4169.06 1177.53 4156.16 1177.53C4143.88 1177.53 4132.25 1176.5 4121.28 1174.43C4110.38 1172.36 4100.31 1169.39 4091.07 1165.53C4081.82 1161.6 4073.48 1156.87 4066.03 1151.35C4058.64 1145.76 4052.37 1139.49 4047.19 1132.52C4042.02 1125.55 4038.05 1117.96 4035.29 1109.75C4032.53 1101.54 4031.15 1092.82 4031.15 1083.57V1081.3H4096.14V1083.06C4096.14 1088.3 4097.69 1093.23 4100.8 1097.85C4103.9 1102.48 4108.14 1106.51 4113.52 1109.96C4118.9 1113.34 4125.22 1116.03 4132.46 1118.03C4139.7 1119.96 4147.46 1120.93 4155.74 1120.93C4164.92 1120.93 4173.33 1119.69 4180.99 1117.2C4188.72 1114.72 4195.34 1111.27 4200.86 1106.86C4206.38 1102.37 4210.69 1097.06 4213.8 1090.92C4216.9 1084.71 4218.45 1077.88 4218.45 1070.43C4218.45 1063.39 4217.04 1056.98 4214.21 1051.18C4211.38 1045.39 4207.28 1040.42 4201.9 1036.28C4196.58 1032.14 4190.1 1028.94 4182.44 1026.66C4174.85 1024.38 4166.23 1023.24 4156.57 1023.24C4149.33 1023.24 4142.53 1023.93 4136.19 1025.31C4129.91 1026.62 4124.25 1028.49 4119.21 1030.9C4114.18 1033.25 4109.9 1036.04 4106.38 1039.28C4102.93 1042.53 4100.45 1046.01 4098.93 1049.74H4034.78V875.475H4264.71V931.147H4098.93V1027.38C4101.62 1020 4105.56 1013.28 4110.73 1007.2C4115.97 1001.13 4122.32 995.96 4129.77 991.683C4137.22 987.337 4145.67 983.991 4155.12 981.645C4164.64 979.231 4175.03 978.024 4186.27 978.024C4201.65 978.024 4215.38 980.231 4227.45 984.646C4239.6 988.992 4249.88 995.167 4258.29 1003.17C4266.71 1011.17 4273.12 1020.8 4277.54 1032.04C4282.02 1043.28 4284.27 1055.77 4284.27 1069.5ZM4398.45 1171.43H4334.5V1104.79H4398.45V1171.43ZM4448.79 1023.45C4448.79 1007.93 4450.31 993.373 4453.35 979.783C4456.38 966.123 4460.73 953.602 4466.38 942.219C4472.04 930.768 4478.9 920.523 4486.98 911.486C4495.12 902.449 4504.22 894.826 4514.3 888.617C4524.44 882.339 4535.47 877.544 4547.41 874.233C4559.34 870.922 4572 869.266 4585.39 869.266C4598.77 869.266 4611.43 870.922 4623.36 874.233C4635.3 877.544 4646.3 882.339 4656.37 888.617C4666.51 894.826 4675.62 902.449 4683.69 911.486C4691.83 920.523 4698.73 930.768 4704.39 942.219C4710.04 953.602 4714.39 966.123 4717.43 979.783C4720.46 993.442 4721.98 1008 4721.98 1023.45C4721.98 1038.9 4720.46 1053.46 4717.43 1067.12C4714.39 1080.78 4710.04 1093.33 4704.39 1104.79C4698.73 1116.17 4691.83 1126.38 4683.69 1135.42C4675.62 1144.45 4666.51 1152.11 4656.37 1158.39C4646.3 1164.6 4635.3 1169.36 4623.36 1172.67C4611.43 1175.98 4598.77 1177.64 4585.39 1177.64C4572 1177.64 4559.34 1175.98 4547.41 1172.67C4535.47 1169.36 4524.44 1164.6 4514.3 1158.39C4504.22 1152.11 4495.12 1144.45 4486.98 1135.42C4478.9 1126.38 4472.04 1116.17 4466.38 1104.79C4460.73 1093.33 4456.38 1080.78 4453.35 1067.12C4450.31 1053.46 4448.79 1038.9 4448.79 1023.45ZM4514.61 1023.45C4514.61 1039.25 4516.16 1053.25 4519.26 1065.46C4522.44 1077.67 4527.02 1087.95 4533.02 1096.3C4539.1 1104.58 4546.51 1110.86 4555.27 1115.13C4564.1 1119.41 4574.14 1121.55 4585.39 1121.55C4596.63 1121.55 4606.63 1119.41 4615.4 1115.13C4624.23 1110.86 4631.64 1104.58 4637.64 1096.3C4643.71 1087.95 4648.3 1077.67 4651.41 1065.46C4654.58 1053.25 4656.17 1039.25 4656.17 1023.45C4656.17 1007.65 4654.58 993.649 4651.41 981.438C4648.3 969.228 4643.71 958.983 4637.64 950.705C4631.64 942.357 4624.23 936.045 4615.4 931.768C4606.63 927.491 4596.63 925.352 4585.39 925.352C4574.14 925.352 4564.1 927.491 4555.27 931.768C4546.51 936.045 4539.1 942.357 4533.02 950.705C4527.02 958.983 4522.44 969.228 4519.26 981.438C4516.16 993.649 4514.61 1007.65 4514.61 1023.45Z" fill="#D582FE"/>
</svg>
